<mxfile host="app.diagrams.net" modified="2024-07-22T15:21:19.618Z" agent="Mozilla/5.0 (Windows NT 10.0; Win64; x64; rv:128.0) Gecko/20100101 Firefox/128.0" etag="n01j71Rx4IAzary-7bWW" version="24.7.1" type="github">
  <diagram name="PÃ¡gina-1" id="C7X5s_TXmx7Cuf1yzMR7">
    <mxGraphModel dx="954" dy="602" grid="1" gridSize="10" guides="1" tooltips="1" connect="1" arrows="1" fold="1" page="1" pageScale="1" pageWidth="827" pageHeight="1169" math="0" shadow="0">
      <root>
        <mxCell id="0" />
        <mxCell id="1" parent="0" />
        <mxCell id="iApLHhu2YTyOyPPZ7fJf-6" style="edgeStyle=orthogonalEdgeStyle;rounded=0;orthogonalLoop=1;jettySize=auto;html=1;" edge="1" parent="1" source="iApLHhu2YTyOyPPZ7fJf-2" target="iApLHhu2YTyOyPPZ7fJf-8">
          <mxGeometry relative="1" as="geometry">
            <mxPoint x="240" y="230" as="targetPoint" />
          </mxGeometry>
        </mxCell>
        <mxCell id="iApLHhu2YTyOyPPZ7fJf-2" value="employee" style="shape=umlActor;verticalLabelPosition=bottom;verticalAlign=top;html=1;outlineConnect=0;" vertex="1" parent="1">
          <mxGeometry x="100" y="200" width="30" height="60" as="geometry" />
        </mxCell>
        <mxCell id="iApLHhu2YTyOyPPZ7fJf-13" style="edgeStyle=orthogonalEdgeStyle;rounded=0;orthogonalLoop=1;jettySize=auto;html=1;entryX=0;entryY=0.5;entryDx=0;entryDy=0;" edge="1" parent="1" source="iApLHhu2YTyOyPPZ7fJf-8" target="iApLHhu2YTyOyPPZ7fJf-12">
          <mxGeometry relative="1" as="geometry" />
        </mxCell>
        <mxCell id="iApLHhu2YTyOyPPZ7fJf-8" value="MICRO_SERVICE (&lt;b&gt;AUTH&lt;/b&gt;)" style="swimlane;fontStyle=0;childLayout=stackLayout;horizontal=1;startSize=30;horizontalStack=0;resizeParent=1;resizeParentMax=0;resizeLast=0;collapsible=1;marginBottom=0;whiteSpace=wrap;html=1;" vertex="1" parent="1">
          <mxGeometry x="190" y="200" width="140" height="60" as="geometry" />
        </mxCell>
        <mxCell id="iApLHhu2YTyOyPPZ7fJf-9" value="login" style="text;strokeColor=none;fillColor=none;align=left;verticalAlign=middle;spacingLeft=4;spacingRight=4;overflow=hidden;points=[[0,0.5],[1,0.5]];portConstraint=eastwest;rotatable=0;whiteSpace=wrap;html=1;" vertex="1" parent="iApLHhu2YTyOyPPZ7fJf-8">
          <mxGeometry y="30" width="140" height="30" as="geometry" />
        </mxCell>
        <mxCell id="iApLHhu2YTyOyPPZ7fJf-12" value="INTRANET" style="rounded=0;whiteSpace=wrap;html=1;" vertex="1" parent="1">
          <mxGeometry x="460" y="60" width="120" height="20" as="geometry" />
        </mxCell>
      </root>
    </mxGraphModel>
  </diagram>
</mxfile>
